:FULLY-SPECIFIED
:DEGREES
699
root 6.21187 16.4392 -2.43604 -4.69751 -85.1431 20.8447
lowerback -7.09209 0.431152 1.02051
upperback -3.78424 0.425114 -1.22151
thorax 0.090825 0.146187 -1.79958
lowerneck -15.7173 -1.75908 0.548435
upperneck 35.2057 -4.55708 1.46558
head 14.8781 -2.04884 -0.369026
rclavicle 1.59028e-015 1.19271e-015
rhumerus -34.6335 -2.10535 -80.0848
rradius 36.7698
rwrist 14.4343
rhand -24.653 -6.78913
rfingers 7.12502
rthumb 1.84671 -36.7609
lclavicle 1.59028e-015 1.19271e-015
lhumerus -42.7868 -1.78525 85.6698
lradius 33.8139
lwrist -8.56939
lhand -36.4076 -2.21738
lfingers 7.12502
lthumb -9.5031 27.5483
rfemur -21.8254 13.3142 22.465
rtibia 24.9884
rfoot -17.7892 -24.1229
rtoes -4.36666
lfemur -45.4881 -6.85191 -21.0075
ltibia 45.4762
lfoot -13.3429 8.75521
ltoes -14.7199
700
root 6.21424 16.452 -2.42467 -4.09421 -85.3769 20.6726
lowerback -7.45451 0.583592 1.13244
upperback -3.92435 0.610994 -1.28933
thorax 0.1554 0.233192 -1.9176
lowerneck -15.7201 -1.76499 0.552891
upperneck 35.2349 -4.58746 1.51341
head 14.8946 -2.05415 -0.355642
rclavicle 1.74931e-014 2.68359e-015
rhumerus -34.3989 -1.68478 -80.1621
rradius 36.9564
rwrist 14.2941
rhand -24.6839 -6.71016
rfingers 7.12502
rthumb 1.81682 -36.6822
lclavicle 1.74931e-014 2.68359e-015
lhumerus -43.1197 -1.54665 85.4146
lradius 33.8494
lwrist -8.60169
lhand -36.3117 -1.92206
lfingers 7.12502
lthumb -9.41055 27.8479
rfemur -21.2424 13.4901 22.5196
rtibia 23.942
rfoot -17.6626 -24.0962
rtoes -4.4618
lfemur -45.8723 -7.29163 -20.5099
ltibia 42.0442
lfoot -13.1048 8.55715
ltoes -14.9005
701
root 6.21519 16.4612 -2.41334 -3.64317 -85.5475 20.4904
lowerback -7.64531 0.724189 1.18589
upperback -4.02829 0.788111 -1.34688
thorax 0.16216 0.317556 -1.99266
lowerneck -15.6977 -1.80082 0.51644
upperneck 35.2355 -4.65912 1.59614
head 14.8945 -2.07793 -0.326832
rclavicle -1.11319e-014 4.57205e-015
rhumerus -34.2113 -1.3525 -80.221
rradius 37.1617
rwrist 14.1219
rhand -24.7136 -6.79942
rfingers 7.12502
rthumb 1.7882 -36.7717
lclavicle -1.11319e-014 4.57205e-015
lhumerus -43.4896 -1.39745 85.2264
lradius 33.9359
lwrist -8.35944
lhand -36.2185 -2.18346
lfingers 7.12502
lthumb -9.32067 27.5905
rfemur -20.3729 13.5744 22.6216
rtibia 22.7796
rfoot -17.5515 -24.0734
rtoes -4.68477
lfemur -45.9986 -8.02646 -19.8745
ltibia 38.4972
lfoot -12.8024 8.40184
ltoes -15.4023
702
root 6.20822 16.4748 -2.4047 -4.32955 -85.581 21.2807
lowerback -7.81693 0.776976 1.06912
upperback -4.04253 0.863194 -1.37921
thorax 0.244241 0.356119 -1.95292
lowerneck -15.6485 -1.80964 0.485708
upperneck 35.2079 -4.6568 1.59543
head 14.8707 -2.08155 -0.319943
rclavicle 8.74653e-015 3.37934e-015
rhumerus -33.9399 -1.04241 -80.2064
rradius 37.3025
rwrist 14.0891
rhand -24.7509 -6.68271
rfingers 7.12502
rthumb 1.75217 -36.6553
lclavicle 8.74653e-015 3.37934e-015
lhumerus -43.8147 -1.19996 85.0832
lradius 34.0246
lwrist -7.96841
lhand -36.2533 -2.15378
lfingers 7.12502
lthumb -9.35426 27.6187
rfemur -19.3065 13.6578 22.6788
rtibia 21.6768
rfoot -17.5837 -24.2181
rtoes -4.94131
lfemur -45.7722 -9.04748 -19.1818
ltibia 34.822
lfoot -12.6469 8.38098
ltoes -15.9001
703
root 6.2019 16.4797 -2.39523 -4.51523 -85.6485 21.5553
lowerback -7.92295 0.869505 1.03787
upperback -4.0826 0.985851 -1.46566
thorax 0.267334 0.415883 -2.01387
lowerneck -15.6856 -1.80498 0.575755
upperneck 35.3033 -4.69354 1.60531
head 14.9231 -2.08305 -0.339929
rclavicle 1.98785e-014 1.19271e-015
rhumerus -33.752 -0.896503 -80.2603
rradius 37.4633
rwrist 14.0595
rhand -24.668 -6.66682
rfingers 7.12502
rthumb 1.83223 -36.6387
lclavicle 1.98785e-014 1.19271e-015
lhumerus -44.1782 -1.15978 84.8692
lradius 34.1737
lwrist -7.89814
lhand -36.0863 -1.77223
lfingers 7.12502
lthumb -9.19308 28.0074
rfemur -18.1721 13.6986 22.7945
rtibia 20.4893
rfoot -17.4479 -24.2894
rtoes -5.33975
lfemur -45.5196 -10.2834 -18.2367
ltibia 31.1591
lfoot -12.3008 8.86266
ltoes -16.7307
